<?xml version="1.0" encoding="UTF-8" standalone="no"?>
<!DOCTYPE svg PUBLIC "-//W3C//DTD SVG 1.1//EN"
 "http://www.w3.org/Graphics/SVG/1.1/DTD/svg11.dtd">
<!-- Generated by graphviz version 2.47.0 (20210316.0004)
 -->
<!-- Title: dependencies Pages: 1 -->
<svg width="990pt" height="287pt"
 viewBox="0.00 0.00 990.00 287.00" xmlns="http://www.w3.org/2000/svg" xmlns:xlink="http://www.w3.org/1999/xlink">
<g id="graph0" class="graph" transform="scale(1 1) rotate(0) translate(4 283)">
<title>dependencies</title>
<polygon fill="white" stroke="transparent" points="-4,4 -4,-283 986,-283 986,4 -4,4"/>
<text text-anchor="start" x="470.01" y="-42.4" font-family="Times-12" font-weight="bold" font-size="14.00">Legend</text>
<polygon fill="#ffffb3" stroke="transparent" points="257,-10 257,-30 277,-30 277,-10 257,-10"/>
<text text-anchor="start" x="280.63" y="-15.4" font-family="Times-12" font-size="14.00"> &#160;Declarations</text>
<polygon fill="#8dd3c7" stroke="transparent" points="370,-10 370,-30 390,-30 390,-10 370,-10"/>
<text text-anchor="start" x="393.73" y="-15.4" font-family="Times-12" font-size="14.00"> &#160;Module</text>
<polygon fill="#80b1d3" stroke="transparent" points="456,-10 456,-30 476,-30 476,-10 456,-10"/>
<text text-anchor="start" x="479.78" y="-15.4" font-family="Times-12" font-size="14.00"> &#160;Bootstrap</text>
<polygon fill="#fdb462" stroke="transparent" points="553,-10 553,-30 573,-30 573,-10 553,-10"/>
<text text-anchor="start" x="576.67" y="-15.4" font-family="Times-12" font-size="14.00"> &#160;Providers</text>
<polygon fill="#fb8072" stroke="transparent" points="649,-10 649,-30 669,-30 669,-10 649,-10"/>
<text text-anchor="start" x="672.73" y="-15.4" font-family="Times-12" font-size="14.00"> &#160;Exports</text>
<g id="clust1" class="cluster">
<title>cluster_AppModule</title>
<polygon fill="none" stroke="black" stroke-dasharray="1,5" points="560,-70 560,-271 692,-271 692,-70 560,-70"/>
</g>
<g id="clust3" class="cluster">
<title>cluster_AppModule_imports</title>
<polygon fill="none" stroke="black" points="568,-78 568,-206 676,-206 676,-78 568,-78"/>
</g>
<g id="clust7" class="cluster">
<title>cluster_AuthModule</title>
<polygon fill="none" stroke="black" stroke-dasharray="1,5" points="8,-70 8,-138 552,-138 552,-70 8,-70"/>
</g>
<g id="clust10" class="cluster">
<title>cluster_AuthModule_exports</title>
<polygon fill="none" stroke="black" points="438,-78 438,-130 544,-130 544,-78 438,-78"/>
</g>
<g id="clust12" class="cluster">
<title>cluster_AuthModule_providers</title>
<polygon fill="none" stroke="black" points="16,-78 16,-130 430,-130 430,-78 16,-78"/>
</g>
<g id="clust13" class="cluster">
<title>cluster_UsersModule</title>
<polygon fill="none" stroke="black" stroke-dasharray="1,5" points="700,-146 700,-214 974,-214 974,-146 700,-146"/>
</g>
<g id="clust16" class="cluster">
<title>cluster_UsersModule_exports</title>
<polygon fill="none" stroke="black" points="856,-154 856,-206 966,-206 966,-154 856,-154"/>
</g>
<g id="clust18" class="cluster">
<title>cluster_UsersModule_providers</title>
<polygon fill="none" stroke="black" points="708,-154 708,-206 848,-206 848,-154 708,-154"/>
</g>
<!-- AuthModule -->
<g id="node1" class="node">
<title>AuthModule</title>
<polygon fill="#8dd3c7" stroke="black" points="663.55,-198 660.55,-202 639.55,-202 636.55,-198 576.45,-198 576.45,-162 663.55,-162 663.55,-198"/>
<text text-anchor="middle" x="620" y="-175.8" font-family="Times,serif" font-size="14.00">AuthModule</text>
</g>
<!-- AppModule -->
<g id="node3" class="node">
<title>AppModule</title>
<polygon fill="#8dd3c7" stroke="black" points="672.66,-263 669.66,-267 648.66,-267 645.66,-263 589.34,-263 589.34,-227 672.66,-227 672.66,-263"/>
<text text-anchor="middle" x="631" y="-240.8" font-family="Times,serif" font-size="14.00">AppModule</text>
</g>
<!-- AuthModule&#45;&gt;AppModule -->
<g id="edge1" class="edge">
<title>AuthModule&#45;&gt;AppModule</title>
<path fill="none" stroke="black" d="M626.47,-198.11C626.47,-198.11 626.47,-216.99 626.47,-216.99"/>
<polygon fill="black" stroke="black" points="622.97,-216.99 626.47,-226.99 629.97,-216.99 622.97,-216.99"/>
</g>
<!-- AuthService  -->
<g id="node4" class="node">
<title>AuthService </title>
<polygon fill="#fb8072" stroke="black" points="535.98,-122 446.02,-122 446.02,-86 535.98,-86 535.98,-122"/>
<text text-anchor="middle" x="491" y="-99.8" font-family="Times,serif" font-size="14.00">AuthService </text>
</g>
<!-- AuthModule&#45;&gt;AuthService  -->
<g id="edge4" class="edge">
<title>AuthModule&#45;&gt;AuthService </title>
<path fill="none" stroke="black" stroke-dasharray="5,2" d="M576.33,-170C538.9,-170 491,-170 491,-170 491,-170 491,-132.03 491,-132.03"/>
<polygon fill="black" stroke="black" points="494.5,-132.03 491,-122.03 487.5,-132.03 494.5,-132.03"/>
</g>
<!-- UsersModule -->
<g id="node2" class="node">
<title>UsersModule</title>
<polygon fill="#8dd3c7" stroke="black" points="667.92,-122 664.92,-126 643.92,-126 640.92,-122 576.08,-122 576.08,-86 667.92,-86 667.92,-122"/>
<text text-anchor="middle" x="622" y="-99.8" font-family="Times,serif" font-size="14.00">UsersModule</text>
</g>
<!-- UsersModule&#45;&gt;AuthModule -->
<g id="edge3" class="edge">
<title>UsersModule&#45;&gt;AuthModule</title>
<path fill="none" stroke="black" d="M620.03,-122.01C620.03,-122.01 620.03,-151.85 620.03,-151.85"/>
<polygon fill="black" stroke="black" points="616.53,-151.85 620.03,-161.85 623.53,-151.85 616.53,-151.85"/>
</g>
<!-- UsersModule&#45;&gt;AppModule -->
<g id="edge2" class="edge">
<title>UsersModule&#45;&gt;AppModule</title>
<path fill="none" stroke="black" d="M667.87,-113C682.24,-113 694.43,-113 694.43,-113 694.43,-113 694.43,-245 694.43,-245 694.43,-245 682.95,-245 682.95,-245"/>
<polygon fill="black" stroke="black" points="682.95,-241.5 672.95,-245 682.95,-248.5 682.95,-241.5"/>
</g>
<!-- UsersService  -->
<g id="node8" class="node">
<title>UsersService </title>
<polygon fill="#fb8072" stroke="black" points="957.85,-198 864.15,-198 864.15,-162 957.85,-162 957.85,-198"/>
<text text-anchor="middle" x="911" y="-175.8" font-family="Times,serif" font-size="14.00">UsersService </text>
</g>
<!-- UsersModule&#45;&gt;UsersService  -->
<g id="edge8" class="edge">
<title>UsersModule&#45;&gt;UsersService </title>
<path fill="none" stroke="black" stroke-dasharray="5,2" d="M667.79,-95C749.28,-95 911,-95 911,-95 911,-95 911,-151.97 911,-151.97"/>
<polygon fill="black" stroke="black" points="907.5,-151.97 911,-161.97 914.5,-151.97 907.5,-151.97"/>
</g>
<!-- AuthService -->
<g id="node5" class="node">
<title>AuthService</title>
<ellipse fill="#fdb462" stroke="black" cx="363" cy="-104" rx="59.11" ry="18"/>
<text text-anchor="middle" x="363" y="-99.8" font-family="Times,serif" font-size="14.00">AuthService</text>
</g>
<!-- AuthService&#45;&gt;AuthModule -->
<g id="edge5" class="edge">
<title>AuthService&#45;&gt;AuthModule</title>
<path fill="none" stroke="black" d="M363,-122.04C363,-143.66 363,-177 363,-177 363,-177 566.4,-177 566.4,-177"/>
<polygon fill="black" stroke="black" points="566.4,-180.5 576.4,-177 566.4,-173.5 566.4,-180.5"/>
</g>
<!-- JwtStrategy -->
<g id="node6" class="node">
<title>JwtStrategy</title>
<ellipse fill="#fdb462" stroke="black" cx="229" cy="-104" rx="56.76" ry="18"/>
<text text-anchor="middle" x="229" y="-99.8" font-family="Times,serif" font-size="14.00">JwtStrategy</text>
</g>
<!-- JwtStrategy&#45;&gt;AuthModule -->
<g id="edge6" class="edge">
<title>JwtStrategy&#45;&gt;AuthModule</title>
<path fill="none" stroke="black" d="M229,-122.15C229,-145.76 229,-184 229,-184 229,-184 566.29,-184 566.29,-184"/>
<polygon fill="black" stroke="black" points="566.29,-187.5 576.29,-184 566.29,-180.5 566.29,-187.5"/>
</g>
<!-- LocalStrategy -->
<g id="node7" class="node">
<title>LocalStrategy</title>
<ellipse fill="#fdb462" stroke="black" cx="89" cy="-104" rx="65.41" ry="18"/>
<text text-anchor="middle" x="89" y="-99.8" font-family="Times,serif" font-size="14.00">LocalStrategy</text>
</g>
<!-- LocalStrategy&#45;&gt;AuthModule -->
<g id="edge7" class="edge">
<title>LocalStrategy&#45;&gt;AuthModule</title>
<path fill="none" stroke="black" d="M89,-122.03C89,-147.51 89,-191 89,-191 89,-191 566.09,-191 566.09,-191"/>
<polygon fill="black" stroke="black" points="566.09,-194.5 576.09,-191 566.09,-187.5 566.09,-194.5"/>
</g>
<!-- UsersService -->
<g id="node9" class="node">
<title>UsersService</title>
<ellipse fill="#fdb462" stroke="black" cx="778" cy="-180" rx="61.95" ry="18"/>
<text text-anchor="middle" x="778" y="-175.8" font-family="Times,serif" font-size="14.00">UsersService</text>
</g>
<!-- UsersService&#45;&gt;UsersModule -->
<g id="edge9" class="edge">
<title>UsersService&#45;&gt;UsersModule</title>
<path fill="none" stroke="black" d="M778,-161.99C778,-139.51 778,-104 778,-104 778,-104 677.96,-104 677.96,-104"/>
<polygon fill="black" stroke="black" points="677.96,-100.5 667.96,-104 677.96,-107.5 677.96,-100.5"/>
</g>
</g>
</svg>
